<svg xmlns="http://www.w3.org/2000/svg" viewBox="0 0 1125 244" fill="none">
  <path d="M4.00061 143.858C7.5894 143.263 15.9753 140.864 23.5135 130.377C29.1281 122.567 34.6225 112.659 43.0445 103.912C52.6435 93.9431 62.9 82.5778 68.8964 72.9656C76.0273 61.5347 77.3273 53.7232 80.33 46.203C84.1397 36.6615 88.1478 30.2789 87.8682 17.664C87.6999 10.0656 73.1795 11.0184 65.9388 12.7948C58.6218 14.5899 58.7161 26.5999 57.2103 36.8162C55.8459 46.0725 49.699 51.8477 47.2915 59.0703C44.6432 67.0152 40.682 75.292 38.2744 82.5147C35.8669 89.7373 33.4683 96.933 28.0671 110.44C23.8323 121.031 23.261 131.198 20.2403 139.016C16.3962 148.964 13.6308 157.636 11.2233 165.472C8.65322 173.836 6.41718 184.687 13.5407 218.573C15.6113 228.423 36.7506 225.011 44.7216 219.953C69.103 204.48 58.68 185.372 65.2895 178.15C71.9559 170.865 72.5302 161.928 71.6375 155.923C71.2563 153.358 68.9595 152.298 65.0641 151.685C55.3184 150.15 47.3005 152.262 44.2978 154.958C41.5022 157.468 41.8722 171.396 42.4674 189.421C42.6899 196.161 44.2527 197.924 55.2806 198.844C87.0409 201.493 110.979 196.788 115.478 191.982C118.62 188.626 123.008 187.158 126.01 182.965C132.891 173.357 131.43 161.928 136.524 154.11C140.564 147.911 146.452 143.876 149.157 139.98C150.47 138.09 150.077 135.49 149.779 133.371C149.482 131.252 148.887 129.466 147.092 128.547C145.298 127.627 142.322 127.627 139.897 128.52C129.328 132.409 128.436 148.619 123.35 157.951C118.9 166.118 115.235 174.48 112.214 184.993C110.767 190.032 110.402 200.882 111.89 213.803C112.672 220.599 134.297 219.601 157.137 217.816C172.072 216.648 173.485 199.8 180.708 194.669C187.185 190.068 195.126 187.753 209.833 185.949C221.093 184.569 225.784 175.129 231.51 169.43C238.889 162.086 251.032 157.708 261.248 148.105C268.734 141.068 270.292 131.883 272.105 124.047C272.513 122.281 271.519 120.449 265.856 119.53C229.824 113.677 210.816 147.428 206.001 154.651C201.186 161.874 197.579 169.069 193.079 176.292C190.501 180.431 186.758 183.515 184.657 187.113C182.691 190.481 182.538 198.501 183.133 208.411C183.494 214.415 187.335 217.78 190.031 220.782C196.45 227.931 211.357 224.398 238.336 224.714C246.858 224.813 253.43 223.208 260.337 222.018C273.12 219.815 277.506 201.603 282.303 194.083C288.826 183.857 296.73 178.159 300.049 170.936C303.478 163.471 305.17 157.708 304.575 153.208C304.287 151.026 302.79 149.304 301.581 149.277C292.121 149.065 290.166 169.069 285.351 176.292C280.077 184.203 273.935 193.704 267.921 205.129C262.675 215.092 263.097 221.386 263.088 224.389C263.079 227.374 273.845 226.815 284.061 225.922C292.778 225.16 296.117 212.423 301.248 200.71C304.691 192.849 306.36 185.372 308.47 176.058C309.729 170.5 310.562 164.922 314.16 161.017C320.989 153.606 333.989 151.685 345.981 148.979C370.282 143.498 377.289 145.066 379.399 145.355C388.294 146.571 368.326 163.046 364.692 172.379C361.41 180.808 359.886 190.71 357.776 198.231C356.56 202.564 358.659 206.959 361.356 210.259C366.585 216.66 379.038 215.994 390.156 215.101C399.931 214.317 405.512 198.609 409.759 189.277C413.215 181.681 419.362 174.552 422.383 167.329C425.614 159.603 430.183 151.107 434.403 146.265C440.044 139.792 441.003 163.046 444.619 171.179C449.599 182.381 459.037 190.71 459.371 203.614C459.775 219.23 451.86 224.993 451.247 228.293C450.95 229.887 454.204 230.999 456.918 231.612C459.632 232.225 462.608 232.225 465.034 230.439C476.295 222.151 473.465 207.013 476.485 198.294C479.217 190.409 487.279 179.998 492.707 169.439C496.893 161.297 499.325 152.911 503.527 145.688C505.702 141.951 508.343 138.466 510.741 136.951C517.572 132.637 517.36 151.035 517.675 174.723C517.744 179.916 516.782 181.693 517.369 183.208C518.667 186.563 530.506 187.14 546.115 185.057C566.197 182.377 572.616 170.332 581.065 167.311C588.951 164.492 597.287 159.511 602.417 152.902C607.623 146.196 609.334 136.68 611.444 128.565C612.129 125.93 611.75 122.289 609.37 120.449C595.531 109.756 575.141 134.191 563.707 143.515C546.681 157.399 545.637 170.873 543.527 179.881C539.814 195.733 548.018 203.334 550.723 212.351C552.227 217.364 555.231 221.386 558.225 224.687C564.649 231.768 575.033 231.612 594.239 230.737C610.311 230.005 615.321 217.834 625.835 213.307C636.4 208.759 638.765 196.806 645.393 184.48C649.959 175.987 649.009 165.535 653.508 158.61C658.375 151.119 665.221 144.489 668.242 141.171C678.923 129.437 643.021 168.456 640.911 178.673C637.013 197.546 643.598 205.138 645.104 223.145C645.371 226.335 647.782 225.624 649 224.425C654.958 218.555 656.799 207.013 661.93 199.79C666.846 192.87 670.036 183.569 673.652 176.644C678.272 167.796 695.212 154.173 710.27 147.771C715.241 145.658 723.994 147.465 728.287 150.44C732.579 153.416 732.579 159.367 731.984 163.921C730.289 176.884 720.604 187.067 716.357 199.421C714.653 204.379 714.545 212.928 716.032 222.243C716.973 228.134 725.347 228.005 731.623 229.808C752.232 235.731 767.348 213.686 777.628 201.91C791.482 186.038 799.882 179.962 806.194 172.144C813.719 162.823 816.113 149.34 819.431 139.98C821.086 135.311 823.344 131.252 823.056 129.439C821.342 118.677 805.941 145.625 798.133 154.345C791.385 161.879 786.104 173.253 781.586 184.696C778.334 192.934 777.664 203.316 778.557 211.729C779.034 216.232 792.596 215.994 807.916 215.101C820.473 214.37 825.13 203.406 831.144 193.19C835.522 185.753 839.557 178.159 843.173 171.233C848.807 160.444 867.185 151.721 877.113 143.29C888.001 134.044 894.85 130.044 902.072 126.139C905.503 124.284 911.675 124.02 915.904 123.425C920.335 122.802 905.129 119.818 900.034 119.214C887.288 117.703 869.746 137.149 857.645 152.226C850.891 160.641 849.223 169.069 844.706 178.086C836.075 195.314 843.182 223.19 844.976 226.788C849.919 236.698 866.572 238.825 881.008 239.141C891.377 239.368 898.456 224.434 907.176 213.037C914.692 203.212 917.717 194.389 921.621 185.67C925.206 177.663 938.059 157.239 950.44 139.412C968.18 113.867 978.997 106.058 983.839 96.6985C989.316 86.1121 995.264 77.1676 999.465 65.4544C1002.92 55.8136 1006.08 44.1291 1008.19 32.4069C1010.57 19.1983 1007.91 8.61991 1006.11 5.61723C1005.23 4.15038 1003.13 3.8048 1001.31 4.09335C991.098 5.71975 982.676 17.5829 979.06 25.1031C973.811 36.0194 968.248 46.4374 963.433 57.5465C957.792 70.5622 955.625 85.4633 950.809 96.6354C947.072 105.307 945.994 114.967 943.884 129.935C938.418 168.714 940.584 177.473 939.673 189.8C939.334 194.392 938.168 202.108 941.738 211.125C943.471 215.501 952.451 214.191 957.32 213.298C970.724 210.841 978.997 199.8 987.428 190.485C997.287 179.592 1010.81 166.797 1017.81 156.509C1018.94 154.835 1019.9 152.911 1019.02 153.181C1004.07 157.806 997.103 182.27 992.585 191.314C990.088 196.315 989.871 202.739 989.267 208.438C988.726 213.546 992.252 217.78 996.147 221.08C1003.65 227.436 1012.07 228.005 1025.28 227.725C1035.73 227.504 1036.74 212.423 1041.24 205.498C1047.03 196.596 1057.16 187.176 1071.86 176.959C1080.81 170.745 1083.02 160.738 1085.74 149.024C1088.24 138.261 1085.45 128.853 1083.96 124.354C1082.56 120.151 1078.26 117.42 1072.57 115.616C1058.47 111.148 1048.21 121.604 1041.29 127.6C1034.06 133.854 1035.55 157.528 1040.93 174.173C1042.86 180.114 1048.16 183.515 1052.05 186.517C1068.97 199.56 1105.85 186.562 1112.77 181.45C1117.9 173.939 1120.91 167.32 1120.62 163.425C1119.73 161.315 1117.35 158.934 1114.9 156.482" stroke="currentColor" stroke-opacity="0.8" stroke-width="8" stroke-linecap="round" stroke-linejoin="round"/>
</svg>
